<svg id="Layer_1" data-name="Layer 1" xmlns="http://www.w3.org/2000/svg" viewBox="0 0 539 62"><title>Artboard 3</title><path d="M41,38.17V59.38h6.33v1.27H17.27V59.38H23.6V42.76L6.27,7.94,0,3.67H32.39l-7,4.27L40,37.22l9.5-29.28L40.85,3.67H63.41l-7,4.27Z"/><path d="M103.37,59.38v1.27H83.59v-6.1c-5.22,3.8-9.73,7-14.17,7-7.12,0-10.2-4.12-10.2-13.53V31l-4.51-3.88L75,20V44.82c0,6.65.56,9.26,4.51,9.26a12.74,12.74,0,0,0,4-.79V30.58L79.08,26.7l20.34-7.12v39.8Z"/><path d="M179.74,59.38v1.27h-23V59.38H160V35.56c0-6.17-.95-8.23-4.35-8.23a11,11,0,0,0-4.91,1.19,25.26,25.26,0,0,1,.24,3.64V59.38h3.17v1.27H131.94V59.38h3.17V35.56c0-6.17-1-8.23-4.36-8.23a10.89,10.89,0,0,0-4.67,1v31h3.17v1.27h-23V59.38h4V30.5l-4.51-3.88,20.33-7.12v7.91c6.41-5.14,10.61-7.52,15-7.52,5.38,0,8.39,2.69,9.42,7.84,6.64-5.38,10.92-7.84,15.43-7.84,6.72,0,9.81,4.2,9.81,12.27V59.38Z"/><path d="M256.1,59.38v1.27H233.16V59.38h3.16V35.56c0-6.17-.95-8.23-4.35-8.23a11,11,0,0,0-4.91,1.19,25.26,25.26,0,0,1,.24,3.64V59.38h3.16v1.27H208.31V59.38h3.16V35.56c0-6.17-.95-8.23-4.35-8.23a10.89,10.89,0,0,0-4.67,1v31h3.17v1.27h-23V59.38h4V30.5l-4.51-3.88,20.33-7.12v7.91c6.41-5.14,10.61-7.52,15-7.52,5.38,0,8.39,2.69,9.41,7.84,6.65-5.38,10.92-7.84,15.43-7.84,6.73,0,9.82,4.2,9.82,12.27V59.38Z"/><path d="M277.55,59.06l4.67-20.25h.08l11,20.73a9.25,9.25,0,0,0,4.12.79c5.61,0,9.73-3.72,9.73-8.78,0-3.8-2.06-7-6.65-9.5l-9-4.91c-7.36-4-11.71-9.41-11.71-17.4,0-9.9,7.28-17.65,20.18-17.65a44,44,0,0,1,18,3.48l-4.67,17.49h-.08L302.72,4.3a13.26,13.26,0,0,0-3.88-.47,7.26,7.26,0,0,0-7.52,7.28c0,3.48,2,6.57,7.84,10.05l10.36,6.25c6.65,4,10.45,8.78,10.45,16,0,10.92-9.18,18.83-22.4,18.83A63.74,63.74,0,0,1,277.55,59.06Z"/><path d="M357,53.37c-2.92,4.67-8.15,8.07-15.43,8.07-9.41,0-13.13-5.54-13.13-15.83V23.14h-6.1v-.08L344.26,5.81V21.87h11.16v1.27H344.26V41.58c0,9.17,2.14,12.58,8,12.58a11.75,11.75,0,0,0,4.67-.87Z"/><path d="M405.28,59.38v1.27H385.49v-6.1c-5.22,3.8-9.73,7-14.16,7-7.12,0-10.21-4.12-10.21-13.53V31l-4.51-3.88L377,20V44.82c0,6.65.55,9.26,4.51,9.26a12.68,12.68,0,0,0,4-.79V30.58L381,26.7l20.34-7.12v39.8Z"/><path d="M456.72,59.38v1.27H436.93V54.4c-4.19,4.27-9.1,7-13.77,7-8.07,0-14.08-6.57-14.08-18.76,0-13.13,7.52-22.39,18.36-22.39a15.94,15.94,0,0,1,9.49,2.93V12.3l-4.51-3.88L452.76,1.3V59.38Zm-19.79-6.09V24.56a6.79,6.79,0,0,0-3.87-1.18c-4.12,0-7.05,5-7.05,14.79,0,10.61,2.3,15.91,7.6,15.91A8.25,8.25,0,0,0,436.93,53.29Z"/><path d="M459.65,59.38h4V30.5l-4.51-3.88,20.34-7.12V59.38h4v1.27H459.65Zm3.08-50.09c0-5.22,3.17-8.78,8.79-8.78s8.78,3.56,8.78,8.78-3.16,8.86-8.78,8.86S462.73,14.59,462.73,9.29Z"/><path d="M487.58,40.63c0-11.32,8.86-20.34,21.76-20.34,13.06,0,22.48,7.91,22.48,20.34,0,11.55-7.36,20.81-22.4,20.81C498,61.44,487.58,53.37,487.58,40.63Zm33.95,13.92c0-6.64-13.29-31.41-20.26-31.41-2,0-3.16,1.42-3.16,3.88,0,7.75,13.69,31.57,20.17,31.57C520.42,58.59,521.53,57.24,521.53,54.55Z"/></svg>